<?xml version="1.0" standalone="no"?>
<!DOCTYPE svg PUBLIC "-//W3C//DTD SVG 20010904//EN"
 "http://www.w3.org/TR/2001/REC-SVG-20010904/DTD/svg10.dtd">
<svg version="1.0" xmlns="http://www.w3.org/2000/svg"
 viewBox="0 0 2600.000000 2600.000000"
 preserveAspectRatio="xMidYMid meet">
<metadata>
Created by potrace 1.13, written by Peter Selinger 2001-2015
</metadata>
<g transform="translate(0.000000,2600.000000) scale(0.100000,-0.100000)"
fill="#000000" stroke="none">
<path d="M14036 22315 c-56 -20 -87 -45 -114 -93 -51 -92 -50 -206 8 -506 33
-174 55 -436 38 -447 -12 -8 -89 -21 -93 -17 -20 20 -128 287 -176 434 -34
104 -76 221 -95 259 -85 180 -203 236 -350 166 -135 -64 -178 -156 -138 -292
24 -82 72 -169 181 -334 55 -83 139 -229 189 -325 l89 -175 -14 -42 c-15 -41
-33 -54 -46 -33 -3 5 -68 55 -143 109 -75 55 -193 152 -262 216 -142 132 -222
195 -295 233 -41 22 -64 26 -127 27 -70 0 -79 -2 -115 -31 -57 -46 -101 -109
-119 -170 -14 -49 -14 -59 0 -108 30 -102 126 -179 391 -313 82 -41 225 -124
316 -184 186 -122 308 -189 388 -215 41 -13 69 -32 120 -84 47 -46 91 -78 146
-106 l78 -39 74 -145 c182 -362 293 -687 354 -1040 30 -176 38 -537 15 -702
-42 -296 -136 -548 -282 -745 -80 -109 -236 -261 -459 -448 -217 -182 -340
-291 -508 -449 -64 -61 -121 -111 -126 -111 -5 0 -69 92 -141 204 -72 112
-141 218 -154 235 -12 17 -68 97 -124 177 l-101 145 9 65 c5 35 10 143 10 239
0 362 -77 680 -250 1035 -440 902 -1335 1437 -2058 1229 -763 -219 -1067
-1185 -680 -2167 181 -461 489 -864 866 -1134 280 -200 569 -311 880 -336
l144 -11 102 -141 c56 -77 123 -171 150 -208 l48 -68 -129 -132 c-150 -154
-297 -324 -520 -602 -208 -259 -308 -372 -401 -451 -417 -355 -1041 -461
-1771 -298 -101 22 -374 108 -512 160 l-46 18 -13 90 c-17 117 -16 148 4 221
21 79 36 272 36 462 0 96 8 216 21 321 29 230 24 376 -15 455 -41 85 -101 118
-214 118 -127 1 -203 -49 -236 -155 -24 -76 -17 -248 18 -456 14 -84 27 -212
30 -305 4 -88 9 -176 12 -197 l5 -36 -41 10 c-34 9 -45 18 -62 52 -11 22 -56
105 -100 183 -43 78 -104 201 -134 275 -111 270 -192 400 -274 443 -73 38
-161 25 -253 -36 -97 -64 -127 -155 -88 -271 26 -79 81 -162 228 -350 62 -79
144 -194 182 -257 l70 -115 -32 -23 c-17 -13 -34 -28 -38 -35 -12 -19 -188
122 -362 290 -221 213 -327 283 -431 282 -100 -1 -220 -128 -234 -246 -7 -61
20 -124 76 -182 62 -63 134 -111 327 -217 128 -70 354 -217 457 -297 9 -8 18
-33 21 -61 4 -46 3 -48 -17 -43 -11 3 -88 15 -171 26 -83 12 -247 47 -365 77
-194 51 -226 56 -325 57 -96 1 -115 -2 -152 -21 -54 -30 -87 -74 -108 -147
-37 -126 4 -237 105 -288 79 -39 152 -48 407 -48 131 0 289 -6 365 -14 224
-24 328 -28 428 -16 119 15 104 16 175 -11 47 -18 83 -23 170 -25 100 -2 117
-5 180 -34 180 -82 475 -188 665 -239 658 -178 1297 -157 1838 58 394 157 632
350 1015 824 89 111 205 253 258 317 95 113 288 325 296 325 11 0 247 -427
362 -655 463 -918 755 -1854 830 -2665 6 -66 14 -144 16 -174 l5 -54 -51 7
c-29 4 -189 34 -356 66 -480 94 -555 104 -798 104 -228 -1 -348 -16 -529 -69
-576 -168 -1077 -534 -1494 -1093 -90 -121 -213 -310 -273 -419 -19 -35 -36
-63 -39 -62 -3 0 -29 33 -58 72 -28 40 -117 138 -196 218 -79 80 -195 211
-258 290 -147 184 -246 279 -322 308 -31 11 -66 21 -78 21 -47 0 -104 -27
-155 -74 -67 -61 -96 -115 -97 -181 -2 -113 83 -212 342 -399 90 -65 198 -151
240 -190 43 -39 103 -94 135 -122 l58 -52 -34 -21 -35 -21 -78 24 c-44 14
-131 39 -194 56 -63 17 -198 65 -300 105 -180 72 -323 115 -386 115 -55 0
-128 -28 -161 -62 -38 -41 -52 -68 -69 -133 -27 -100 -12 -161 56 -227 75 -72
198 -105 527 -138 61 -6 173 -26 250 -43 l138 -33 -4 -49 c-1 -28 -5 -52 -7
-54 -13 -14 -214 -32 -439 -40 -285 -11 -377 -24 -458 -69 -29 -15 -61 -43
-76 -66 -23 -35 -26 -49 -26 -130 0 -113 26 -174 93 -221 40 -28 52 -30 140
-33 106 -3 145 5 447 91 88 25 230 58 315 72 85 15 159 29 165 31 5 2 26 -11
47 -29 l36 -33 -145 -108 c-79 -60 -190 -136 -246 -169 -205 -120 -270 -163
-328 -215 -81 -73 -113 -131 -114 -202 0 -65 20 -110 78 -176 91 -103 204
-111 335 -23 26 18 133 116 237 219 105 102 240 228 301 278 117 96 288 268
306 308 7 16 38 37 87 61 54 25 95 55 142 102 69 70 78 86 179 316 184 420
425 780 717 1066 388 383 807 579 1233 579 162 0 270 -15 678 -94 185 -36 375
-71 422 -78 l85 -13 -3 -45 c-6 -79 -50 -323 -81 -446 -175 -690 -568 -1248
-1193 -1695 -405 -290 -835 -488 -2208 -1019 -1273 -492 -1827 -736 -2391
-1056 -662 -374 -1176 -770 -1652 -1273 -263 -276 -363 -434 -398 -623 -30
-165 48 -284 195 -295 123 -10 255 41 402 156 49 38 176 160 283 271 397 413
755 687 1274 976 520 290 988 485 2198 918 1130 403 1588 593 2084 863 498
272 869 541 1229 893 322 316 570 637 795 1032 228 401 429 935 511 1354 l12
61 77 7 c217 20 441 55 831 131 454 90 600 105 783 86 193 -21 338 -66 542
-168 438 -219 814 -610 1122 -1168 59 -106 175 -353 193 -410 40 -126 141
-255 247 -313 42 -22 62 -43 103 -107 37 -58 107 -135 248 -275 109 -107 243
-249 298 -315 190 -226 297 -307 404 -307 62 1 114 28 167 85 77 84 96 151 68
239 -26 79 -139 186 -345 325 -128 86 -350 262 -433 343 -5 4 6 17 25 28 l33
20 206 -53 c114 -28 282 -80 373 -114 318 -118 441 -129 532 -49 45 40 70 88
84 165 15 86 -1 143 -54 198 -72 75 -185 104 -496 129 -102 9 -240 27 -307 41
-67 14 -124 25 -127 25 -3 0 -5 24 -5 53 l1 54 129 22 c72 12 214 26 321 32
313 15 438 46 507 124 94 107 46 327 -83 386 -91 41 -229 21 -514 -75 -74 -25
-220 -64 -325 -86 -106 -23 -194 -43 -196 -46 -2 -2 -24 11 -48 28 l-44 32 28
21 c15 11 82 63 148 116 66 53 189 139 273 192 185 116 269 182 315 245 60 83
71 146 37 221 -50 109 -136 176 -230 176 -114 0 -180 -51 -495 -386 -55 -58
-155 -153 -221 -212 -67 -59 -152 -143 -190 -187 l-68 -81 -45 82 c-74 131
-272 425 -363 539 -217 271 -472 506 -730 673 -210 137 -387 221 -622 296
-206 66 -312 83 -542 89 -247 5 -348 -6 -772 -89 -291 -56 -559 -101 -687
-115 l-60 -6 0 378 c0 408 -7 520 -56 867 -82 583 -248 1194 -494 1812 -123
310 -189 456 -362 804 l-157 314 185 181 c101 100 303 283 449 406 297 252
457 402 568 535 251 300 400 655 474 1135 18 115 18 602 0 730 -63 444 -185
839 -397 1278 l-84 174 29 58 c16 32 35 80 41 106 9 36 27 65 65 106 72 79
147 195 244 377 44 84 128 222 186 305 215 309 253 452 148 560 -72 74 -197
113 -278 86 -92 -30 -170 -155 -261 -420 -44 -128 -210 -515 -231 -539 -3 -3
-17 8 -33 23 l-28 27 -2 217 c-1 136 5 281 15 392 18 197 14 339 -12 414 -21
61 -77 118 -130 134 -54 16 -149 15 -198 -3z"/>
</g>
</svg>
