<?xml version="1.0" standalone="no"?>
<!DOCTYPE svg PUBLIC "-//W3C//DTD SVG 20010904//EN"
 "http://www.w3.org/TR/2001/REC-SVG-20010904/DTD/svg10.dtd">
<svg version="1.0" xmlns="http://www.w3.org/2000/svg"
 viewBox="0 0 2600.000000 2600.000000"
 preserveAspectRatio="xMidYMid meet">
<metadata>
Created by potrace 1.13, written by Peter Selinger 2001-2015
</metadata>
<g transform="translate(0.000000,2600.000000) scale(0.100000,-0.100000)"
fill="#000000" stroke="none">
<path d="M12730 20384 c-25 -2 -103 -9 -175 -14 -1560 -130 -3043 -870 -4093
-2045 -624 -699 -1079 -1510 -1327 -2370 -20 -71 -41 -134 -45 -138 -4 -5 -25
7 -46 25 -148 132 -441 318 -652 415 -259 119 -550 211 -797 253 -70 11 -648
70 -653 65 -1 -1 13 -130 30 -286 l33 -284 -3 -905 c-4 -1059 5 -1278 68
-1670 153 -946 585 -1539 1290 -1768 252 -83 426 -107 762 -107 l268 1 51
-121 c165 -383 359 -743 606 -1119 1018 -1551 2543 -2597 4178 -2865 331 -55
475 -66 865 -66 379 0 526 11 836 60 1145 184 2238 741 3144 1603 420 400 742
783 1055 1257 247 375 456 762 630 1167 l37 88 187 -6 c776 -26 1364 241 1735
789 190 281 328 669 396 1114 62 408 77 794 63 1603 -12 673 -7 873 31 1220
14 129 26 249 26 267 0 30 -2 32 -32 27 -18 -2 -154 -16 -303 -30 -284 -27
-366 -39 -530 -80 -433 -109 -842 -310 -1182 -581 -51 -40 -94 -69 -96 -65 -3
4 -19 54 -36 112 -112 387 -253 740 -430 1085 -757 1471 -2077 2586 -3651
3087 -406 129 -821 214 -1290 264 -136 15 -833 28 -950 18z m-2196 -5414
l2554 -731 2558 731 c1408 402 2570 734 2584 737 25 4 26 2 63 -134 78 -289
131 -573 164 -873 22 -206 26 -852 5 -1050 -82 -787 -275 -1464 -617 -2155
-513 -1038 -1292 -1919 -2215 -2502 -655 -415 -1307 -654 -2045 -750 -218 -28
-800 -26 -1021 5 -578 78 -1070 234 -1591 502 -1734 894 -3006 2756 -3237
4740 -27 229 -36 395 -36 666 0 521 58 953 193 1442 l31 114 28 -6 c15 -3
1177 -334 2582 -736z m-4414 484 c369 -188 626 -441 728 -715 26 -71 27 -80
22 -214 -10 -289 -3 -756 14 -930 33 -340 86 -652 167 -984 27 -112 49 -208
49 -213 0 -13 -183 -2 -300 18 -181 31 -329 93 -456 189 -178 136 -308 366
-393 692 -95 366 -127 854 -111 1653 5 234 9 471 10 527 l0 102 80 -34 c45
-19 130 -60 190 -91z m14215 -451 c12 -887 -6 -1214 -86 -1597 -122 -584 -377
-889 -819 -980 -79 -16 -256 -36 -319 -36 l-38 0 29 108 c91 346 162 762 199
1162 13 140 18 587 9 865 l-5 160 32 80 c93 231 331 473 634 645 119 67 314
159 340 160 15 0 17 -52 24 -567z"/>
<path d="M10730 13294 c-147 -39 -296 -157 -358 -284 -112 -231 -73 -481 102
-655 116 -115 236 -165 396 -166 160 0 283 51 395 165 115 116 165 237 165
397 0 158 -52 282 -165 394 -111 112 -242 166 -400 164 -44 0 -105 -7 -135
-15z"/>
<path d="M15175 13296 c-187 -45 -338 -183 -401 -365 -125 -360 145 -741 526
-742 107 0 163 13 260 59 183 89 310 296 310 507 0 71 -33 194 -71 266 -67
125 -211 236 -355 273 -72 19 -198 20 -269 2z"/>
</g>
</svg>
